<?xml version="1.0" encoding="UTF-8"?>
<!DOCTYPE score-partwise PUBLIC "-//Recordare//DTD MusicXML 3.1 Partwise//EN"
  "http://www.musicxml.org/dtds/partwise.dtd">
<score-partwise version="3.1">
  <work>
    <work-title>Formatting Example</work-title>
  </work>
  <identification>
    <creator type="composer">AI Example</creator>
  </identification>
  <part-list>
    <score-part id="P1">
      <part-name>Formatting</part-name>
    </score-part>
  </part-list>
  <part id="P1">
    <!-- Octave 6 -->
    <measure number="1">
      <note><pitch><step>C</step><octave>3</octave></pitch><duration>1</duration><type>quarter</type></note>
      <note><pitch><step>D</step><octave>3</octave></pitch><duration>1</duration><type>quarter</type></note>
      <note><pitch><step>E</step><octave>3</octave></pitch><duration>1</duration><type>quarter</type></note>
      <note><pitch><step>F</step><octave>3</octave></pitch><duration>1</duration><type>quarter</type></note>
      <note><pitch><step>G</step><octave>3</octave></pitch><duration>1</duration><type>quarter</type></note>
      <note><pitch><step>A</step><octave>3</octave></pitch><duration>1</duration><type>quarter</type></note>
      <note><pitch><step>B</step><octave>3</octave></pitch><duration>1</duration><type>quarter</type></note>
    </measure>
    <!-- Octave 4 -->
    <measure number="2">
      <note><pitch><step>C</step><octave>4</octave></pitch><duration>1</duration><type>quarter</type></note>
      <note><pitch><step>D</step><octave>4</octave></pitch><duration>1</duration><type>quarter</type></note>
      <note><pitch><step>E</step><octave>4</octave></pitch><duration>1</duration><type>quarter</type></note>
      <note><pitch><step>F</step><octave>4</octave></pitch><duration>1</duration><type>quarter</type></note>
      <note><pitch><step>G</step><octave>4</octave></pitch><duration>1</duration><type>quarter</type></note>
      <note><pitch><step>A</step><octave>4</octave></pitch><duration>1</duration><type>quarter</type></note>
      <note><pitch><step>B</step><octave>4</octave></pitch><duration>1</duration><type>quarter</type></note>
    </measure>
    <!-- Octave 5 -->
    <measure number="3">
      <note><pitch><step>C</step><octave>5</octave></pitch><duration>1</duration><type>quarter</type></note>
      <note><pitch><step>D</step><octave>5</octave></pitch><duration>1</duration><type>quarter</type></note>
      <note><pitch><step>E</step><octave>5</octave></pitch><duration>1</duration><type>quarter</type></note>
      <note><pitch><step>F</step><octave>5</octave></pitch><duration>1</duration><type>quarter</type></note>
      <note><pitch><step>G</step><octave>5</octave></pitch><duration>1</duration><type>quarter</type></note>
      <note><pitch><step>A</step><octave>5</octave></pitch><duration>1</duration><type>quarter</type></note>
      <note><pitch><step>B</step><octave>5</octave></pitch><duration>1</duration><type>quarter</type></note>
    </measure>
    <!-- Note types and rests -->
    <measure number="4">
      <note><rest/><duration>4</duration><type>whole</type></note>
      <note><pitch><step>C</step><octave>4</octave></pitch><duration>4</duration><type>whole</type></note>
    </measure>
    <measure number="5">
      <note><rest/><duration>2</duration><type>half</type></note>
      <note><pitch><step>D</step><octave>4</octave></pitch><duration>2</duration><type>half</type></note>
    </measure>
    <measure number="6">
      <note><rest/><duration>1</duration><type>quarter</type></note>
      <note><pitch><step>E</step><octave>4</octave></pitch><duration>1</duration><type>quarter</type></note>
    </measure>
    <measure number="7">
      <note><rest/><duration>1</duration><type>eighth</type></note>
      <note><pitch><step>F</step><octave>4</octave></pitch><duration>1</duration><type>eighth</type></note>
    </measure>
    <measure number="8">
      <note><rest/><duration>1</duration><type>16th</type></note>
      <note><pitch><step>G</step><octave>4</octave></pitch><duration>1</duration><type>16th</type></note>
    </measure>
    <measure number="9">
      <note><rest/><duration>1</duration><type>32nd</type></note>
      <note><pitch><step>A</step><octave>4</octave></pitch><duration>1</duration><type>32nd</type></note>
      <note><pitch><step>A</step><octave>5</octave></pitch><duration>1</duration><type>32nd</type></note>
    </measure>
    <measure number="10">
      <note><rest/><duration>1</duration><type>64th</type></note>
      <note><pitch><step>B</step><octave>4</octave></pitch><duration>1</duration><type>64th</type></note>
    </measure>
    <measure number="11">
      <note><pitch><step>C</step><octave>4</octave></pitch><duration>1</duration><type>eighth</type></note>
      <note><pitch><step>C</step><octave>4</octave></pitch><duration>1</duration><type>eighth</type></note>
    </measure>
    <measure number="12">
      <note><pitch><step>C</step><octave>4</octave></pitch><duration>1</duration><type>eighth</type></note>
      <note><pitch><step>C</step><octave>4</octave></pitch><duration>1</duration><type>eighth</type></note>
      <note><pitch><step>C</step><octave>4</octave></pitch><duration>1</duration><type>eighth</type></note>
      <note><pitch><step>C</step><octave>4</octave></pitch><duration>1</duration><type>eighth</type></note>
    </measure>
    <measure number="13">
      <note><pitch><step>C</step><octave>4</octave></pitch><duration>1</duration><type>eighth</type></note>
      <note><pitch><step>D</step><octave>4</octave></pitch><duration>1</duration><type>eighth</type></note>
      <note><pitch><step>E</step><octave>4</octave></pitch><duration>1</duration><type>eighth</type></note>
      <note><pitch><step>F</step><octave>4</octave></pitch><duration>1</duration><type>eighth</type></note>
    </measure>
  </part>
</score-partwise>
