<?xml version="1.0" encoding="UTF-8"?>
<score-partwise version="4.0">
  <work>
    <work-title>Itsy Bitsy Spider</work-title>
  </work>
  <identification>
    <miscellaneous>
      <miscellaneous-field name="icon">🕷️</miscellaneous-field>
    </miscellaneous>
  </identification>
  <part-list>
    <score-part id="P1">
      <part-name>Melody</part-name>
    </score-part>
  </part-list>
  <part id="P1">
    <measure number="0" implicit="yes">
      <attributes>
        <divisions>2</divisions>
        <key><fifths>0</fifths></key>
        <time><beats>6</beats><beat-type>8</beat-type></time>
        <clef><sign>G</sign><line>2</line></clef>
      </attributes>
      <note>
        <pitch><step>G</step><octave>4</octave></pitch>
        <duration>1</duration>
        <type>eighth</type>
      </note>
    </measure>
    <measure number="1">
      <note><pitch><step>C</step><octave>5</octave></pitch><duration>1</duration><type>eighth</type></note>
      <note><pitch><step>C</step><octave>5</octave></pitch><duration>1</duration><type>eighth</type></note>
      <note><pitch><step>C</step><octave>5</octave></pitch><duration>1</duration><type>eighth</type></note>
      <note><pitch><step>D</step><octave>5</octave></pitch><duration>1</duration><type>eighth</type></note>
      <note><pitch><step>E</step><octave>5</octave></pitch><duration>2</duration><type>quarter</type></note>
    </measure>
    <measure number="2">
      <note><pitch><step>E</step><octave>5</octave></pitch><duration>1</duration><type>eighth</type></note>
      <note><pitch><step>D</step><octave>5</octave></pitch><duration>1</duration><type>eighth</type></note>
      <note><pitch><step>C</step><octave>5</octave></pitch><duration>1</duration><type>eighth</type></note>
      <note><pitch><step>D</step><octave>5</octave></pitch><duration>1</duration><type>eighth</type></note>
      <note><pitch><step>E</step><octave>5</octave></pitch><duration>1</duration><type>eighth</type></note>
      <note><pitch><step>C</step><octave>5</octave></pitch><duration>1</duration><type>eighth</type></note>
    </measure>
    <measure number="3">
      <note><pitch><step>E</step><octave>5</octave></pitch><duration>1</duration><type>eighth</type></note>
      <note><pitch><step>E</step><octave>5</octave></pitch><duration>1</duration><type>eighth</type></note>
      <note><pitch><step>F</step><octave>5</octave></pitch><duration>1</duration><type>eighth</type></note>
      <note><pitch><step>G</step><octave>5</octave></pitch><duration>2</duration><type>quarter</type></note>
      <note><pitch><step>G</step><octave>5</octave></pitch><duration>1</duration><type>eighth</type></note>
    </measure>
    <measure number="4">
      <note><pitch><step>G</step><octave>5</octave></pitch><duration>1</duration><type>eighth</type></note>
      <note><pitch><step>F</step><octave>5</octave></pitch><duration>1</duration><type>eighth</type></note>
      <note><pitch><step>E</step><octave>5</octave></pitch><duration>1</duration><type>eighth</type></note>
      <note><pitch><step>F</step><octave>5</octave></pitch><duration>1</duration><type>eighth</type></note>
      <note><pitch><step>G</step><octave>5</octave></pitch><duration>1</duration><type>eighth</type></note>
      <note><pitch><step>E</step><octave>5</octave></pitch><duration>1</duration><type>eighth</type></note>
    </measure>
    <measure number="5">
      <note><pitch><step>C</step><octave>5</octave></pitch><duration>1</duration><type>eighth</type></note>
      <note><pitch><step>C</step><octave>5</octave></pitch><duration>1</duration><type>eighth</type></note>
      <note><pitch><step>D</step><octave>5</octave></pitch><duration>1</duration><type>eighth</type></note>
      <note><pitch><step>E</step><octave>5</octave></pitch><duration>2</duration><type>quarter</type></note>
      <note><pitch><step>E</step><octave>5</octave></pitch><duration>1</duration><type>eighth</type></note>
    </measure>
    <measure number="6">
      <note><pitch><step>D</step><octave>5</octave></pitch><duration>1</duration><type>eighth</type></note>
      <note><pitch><step>C</step><octave>5</octave></pitch><duration>1</duration><type>eighth</type></note>
      <note><pitch><step>D</step><octave>5</octave></pitch><duration>1</duration><type>eighth</type></note>
      <note><pitch><step>E</step><octave>5</octave></pitch><duration>1</duration><type>eighth</type></note>
      <note><pitch><step>C</step><octave>5</octave></pitch><duration>2</duration><type>quarter</type></note>
    </measure>
    <measure number="7">
      <note><pitch><step>G</step><octave>4</octave></pitch><duration>1</duration><type>eighth</type></note>
      <note><pitch><step>C</step><octave>5</octave></pitch><duration>1</duration><type>eighth</type></note>
      <note><pitch><step>C</step><octave>5</octave></pitch><duration>1</duration><type>eighth</type></note>
      <note><pitch><step>C</step><octave>5</octave></pitch><duration>1</duration><type>eighth</type></note>
      <note><pitch><step>D</step><octave>5</octave></pitch><duration>1</duration><type>eighth</type></note>
      <note><pitch><step>E</step><octave>5</octave></pitch><duration>1</duration><type>eighth</type></note>
    </measure>
    <measure number="8">
      <note><pitch><step>E</step><octave>5</octave></pitch><duration>1</duration><type>eighth</type></note>
      <note><pitch><step>D</step><octave>5</octave></pitch><duration>1</duration><type>eighth</type></note>
      <note><pitch><step>C</step><octave>5</octave></pitch><duration>1</duration><type>eighth</type></note>
      <note><pitch><step>D</step><octave>5</octave></pitch><duration>1</duration><type>eighth</type></note>
      <note><pitch><step>E</step><octave>5</octave></pitch><duration>1</duration><type>eighth</type></note>
      <note><pitch><step>C</step><octave>5</octave></pitch><duration>1</duration><type>eighth</type></note>
    </measure>
  </part>
</score-partwise>
