<?xml version="1.0" encoding="UTF-8"?>
<score-partwise version="4.0">
  <work>
    <work-title>The Wheels On The Bus</work-title>
  </work>
  <identification>
    <encoding>
      <software>Fun Sheet Music Editor</software>
      <encoding-date>2026-05-06</encoding-date>
    </encoding>
    <miscellaneous>
      <miscellaneous-field name="icon">🚌</miscellaneous-field>
      <miscellaneous-field name="variables">
        <default>
          <end1>all</end1>
          <end2>through</end2>
          <end3>the</end3>
          <end4>town.</end4>
        </default>
        <verse>
          <subject>wheels</subject>
          <verb>go</verb>
          <predicate1>round</predicate1>
          <predicate2>and</predicate2>
          <predicate3>round,</predicate3>
        </verse>
        <verse>
          <subject>horn</subject>
          <verb>goes</verb>
          <predicate1>beep,</predicate1>
          <predicate2>beep,</predicate2>
          <predicate3>beep,</predicate3>
        </verse>
        <verse>
          <subject>wipers</subject>
          <verb>go</verb>
          <predicate1>swish,</predicate1>
          <predicate2>swish,</predicate2>
          <predicate3>swish,</predicate3>
        </verse>
        <verse>
          <subject>doors</subject>
          <verb>go</verb>
          <predicate1>o-pen</predicate1>
          <predicate2>and</predicate2>
          <predicate3>shut,</predicate3>
        </verse>
        <verse>
          <subject>driver</subject>
          <verb>says</verb>
          <predicate1>"Move</predicate1>
          <predicate2>on</predicate2>
          <predicate3>back,"</predicate3>
        </verse>
        <verse>
          <subject>people</subject>
          <verb>go</verb>
          <predicate1>up</predicate1>
          <predicate2>and</predicate2>
          <predicate3>down,</predicate3>
        </verse>
        <verse>
          <subject>ba-by</subject>
          <verb>goes</verb>
          <predicate1>wah,</predicate1>
          <predicate2>wah,</predicate2>
          <predicate3>wah,</predicate3>
        </verse>
        <verse>
          <subject>daddy</subject>
          <verb>goes</verb>
          <predicate1>shh,</predicate1>
          <predicate2>shh,</predicate2>
          <predicate3>shh,</predicate3>
        </verse>
        <verse>
          <subject>mommy</subject>
          <verb>goes</verb>
          <predicate1>"I</predicate1>
          <predicate2>love</predicate2>
          <predicate3>you,"</predicate3>
          <end1>and your</end1>
          <end2>daddy</end2>
          <end3>loves</end3>
          <end4> you too.</end4>
        </verse>
      </miscellaneous-field>
    </miscellaneous>
  </identification>
  <part-list>
    <score-part id="P1">
      <part-name>The Wheels On The Bus</part-name>
    </score-part>
  </part-list>
  <part id="P1">
    <measure number="1" implicit="yes">
      <attributes>
        <divisions>4</divisions>
        <key>
          <fifths>0</fifths>
        </key>
        <clef>
          <sign>G</sign>
          <line>2</line>
        </clef>
        <time>
          <beats>4</beats>
          <beat-type>4</beat-type>
        </time>
      </attributes>
      <note>
        <pitch>
          <step>C</step>
          <octave>4</octave>
        </pitch>
        <duration>4</duration>
        <type>quarter</type>
        <lyric number="1"><text>The</text></lyric>
      </note>
    </measure>
    <measure number="2">
      <note>
        <pitch>
          <step>F</step>
          <octave>4</octave>
        </pitch>
        <duration>4</duration>
        <type>quarter</type>
        <lyric number="1"><text>{{subject}}</text></lyric>
      </note>
      <note>
        <pitch>
          <step>F</step>
          <octave>4</octave>
        </pitch>
        <duration>2</duration>
        <type>eighth</type>
        <beam number="1">begin</beam>
        <lyric number="1"><text>on</text></lyric>
      </note>
      <note>
        <pitch>
          <step>F</step>
          <octave>4</octave>
        </pitch>
        <duration>2</duration>
        <type>eighth</type>
        <beam number="1">end</beam>
        <lyric number="1"><text>the</text></lyric>
      </note>
      <note>
        <pitch>
          <step>F</step>
          <octave>4</octave>
        </pitch>
        <duration>4</duration>
        <type>quarter</type>
        <lyric number="1"><text>bus</text></lyric>
      </note>
      <note>
        <pitch>
          <step>A</step>
          <octave>4</octave>
        </pitch>
        <duration>4</duration>
        <type>quarter</type>
        <lyric number="1"><text>{{verb}}</text></lyric>
      </note>
    </measure>
    <measure number="3">
      <note>
        <pitch>
          <step>C</step>
          <octave>5</octave>
        </pitch>
        <duration>4</duration>
        <type>quarter</type>
        <lyric number="1"><text>{{predicate1}}</text></lyric>
      </note>
      <note>
        <pitch>
          <step>A</step>
          <octave>4</octave>
        </pitch>
        <duration>4</duration>
        <type>quarter</type>
        <lyric number="1"><text>{{predicate2}}</text></lyric>
      </note>
      <note>
        <pitch>
          <step>F</step>
          <octave>4</octave>
        </pitch>
        <duration>8</duration>
        <type>half</type>
        <lyric number="1"><text>{{predicate3}}</text></lyric>
      </note>
    </measure>
    <measure number="4">
      <note>
        <pitch>
          <step>G</step>
          <octave>4</octave>
        </pitch>
        <duration>4</duration>
        <type>quarter</type>
        <lyric number="1"><text>{{predicate1}}</text></lyric>
      </note>
      <note>
        <pitch>
          <step>E</step>
          <octave>4</octave>
        </pitch>
        <duration>4</duration>
        <type>quarter</type>
        <lyric number="1"><text>{{predicate2}}</text></lyric>
      </note>
      <note>
        <pitch>
          <step>C</step>
          <octave>4</octave>
        </pitch>
        <duration>8</duration>
        <type>half</type>
        <lyric number="1"><text>{{predicate3}}</text></lyric>
      </note>
    </measure>
    <measure number="5">
      <note>
        <pitch>
          <step>C</step>
          <octave>5</octave>
        </pitch>
        <duration>4</duration>
        <type>quarter</type>
        <lyric number="1"><text>{{predicate1}}</text></lyric>
      </note>
      <note>
        <pitch>
          <step>A</step>
          <octave>4</octave>
        </pitch>
        <duration>4</duration>
        <type>quarter</type>
        <lyric number="1"><text>{{predicate2}}</text></lyric>
      </note>
      <note>
        <pitch>
          <step>F</step>
          <octave>4</octave>
        </pitch>
        <duration>4</duration>
        <type>quarter</type>
        <lyric number="1"><text>{{predicate3}}</text></lyric>
      </note>
      <note>
        <pitch>
          <step>C</step>
          <octave>4</octave>
        </pitch>
        <duration>4</duration>
        <type>quarter</type>
        <lyric number="1"><text>The</text></lyric>
      </note>
    </measure>
    <measure number="6">
      <note>
        <pitch>
          <step>F</step>
          <octave>4</octave>
        </pitch>
        <duration>4</duration>
        <type>quarter</type>
        <lyric number="1"><text>{{subject}}</text></lyric>
      </note>
      <note>
        <pitch>
          <step>F</step>
          <octave>4</octave>
        </pitch>
        <duration>2</duration>
        <type>eighth</type>
        <beam number="1">begin</beam>
        <lyric number="1"><text>on</text></lyric>
      </note>
      <note>
        <pitch>
          <step>F</step>
          <octave>4</octave>
        </pitch>
        <duration>2</duration>
        <type>eighth</type>
        <beam number="1">end</beam>
        <lyric number="1"><text>the</text></lyric>
      </note>
      <note>
        <pitch>
          <step>F</step>
          <octave>4</octave>
        </pitch>
        <duration>4</duration>
        <type>quarter</type>
        <lyric number="1"><text>bus</text></lyric>
      </note>
      <note>
        <pitch>
          <step>A</step>
          <octave>4</octave>
        </pitch>
        <duration>4</duration>
        <type>quarter</type>
        <lyric number="1"><text>{{verb}}</text></lyric>
      </note>
    </measure>
    <measure number="7">
      <note>
        <pitch>
          <step>C</step>
          <octave>5</octave>
        </pitch>
        <duration>4</duration>
        <type>quarter</type>
        <lyric number="1"><text>{{predicate1}}</text></lyric>
      </note>
      <note>
        <pitch>
          <step>A</step>
          <octave>4</octave>
        </pitch>
        <duration>4</duration>
        <type>quarter</type>
        <lyric number="1"><text>{{predicate2}}</text></lyric>
      </note>
      <note>
        <pitch>
          <step>F</step>
          <octave>4</octave>
        </pitch>
        <duration>8</duration>
        <type>half</type>
        <lyric number="1"><text>{{predicate3}}</text></lyric>
      </note>
    </measure>
    <measure number="8">
      <note>
        <pitch>
          <step>G</step>
          <octave>4</octave>
        </pitch>
        <duration>8</duration>
        <type>half</type>
        <lyric number="1"><text>{{end1}}</text></lyric>
      </note>
      <note>
        <pitch>
          <step>C</step>
          <octave>4</octave>
        </pitch>
        <duration>6</duration>
        <type>quarter</type>
        <dot/>
        <lyric number="1"><text>{{end2}}</text></lyric>
      </note>
      <note>
        <pitch>
          <step>C</step>
          <octave>4</octave>
        </pitch>
        <duration>2</duration>
        <type>eighth</type>
        <lyric number="1"><text>{{end3}}</text></lyric>
      </note>
    </measure>
    <measure number="9">
      <note>
        <pitch>
          <step>F</step>
          <octave>4</octave>
        </pitch>
        <duration>16</duration>
        <type>whole</type>
        <lyric number="1"><text>{{end4}}</text></lyric>
      </note>
    </measure>
  </part>
</score-partwise>
