<?xml version="1.0" encoding="UTF-8"?>
<!DOCTYPE score-partwise PUBLIC "-//Recordare//DTD MusicXML 3.1 Partwise//EN"
  "http://www.musicxml.org/dtds/partwise.dtd">
<score-partwise version="3.1">
  <work>
    <work-title>Formatting Example</work-title>
  </work>
  <identification>
    <creator type="composer">AI Example</creator>
    <miscellaneous>
      <miscellaneous-field name="icon">📝</miscellaneous-field>
      <miscellaneous-field name="tag">Testing</miscellaneous-field>
    </miscellaneous>
  </identification>
  <part-list>
    <score-part id="P1">
      <part-name>Formatting</part-name>
    </score-part>
  </part-list>
  <part id="P1">
    <!-- Octave 3 -->
    <measure number="1">
      <attributes>
        <divisions>1</divisions>
        <time>
          <beats>7</beats>
          <beat-type>4</beat-type>
        </time>
        <clef>
          <sign>G</sign>
          <line>2</line>
        </clef>
      </attributes>
      <note><pitch><step>C</step><octave>3</octave></pitch><duration>1</duration><type>quarter</type></note>
      <note><pitch><step>D</step><octave>3</octave></pitch><duration>1</duration><type>quarter</type></note>
      <note><pitch><step>E</step><octave>3</octave></pitch><duration>1</duration><type>quarter</type></note>
      <note><pitch><step>F</step><octave>3</octave></pitch><duration>1</duration><type>quarter</type></note>
      <note><pitch><step>G</step><octave>3</octave></pitch><duration>1</duration><type>quarter</type></note>
      <note><pitch><step>A</step><octave>3</octave></pitch><duration>1</duration><type>quarter</type></note>
      <note><pitch><step>B</step><octave>3</octave></pitch><duration>1</duration><type>quarter</type></note>
    </measure>
    <!-- Octave 4 -->
    <measure number="2">
      <note><pitch><step>C</step><octave>4</octave></pitch><duration>1</duration><type>quarter</type></note>
      <note><pitch><step>D</step><octave>4</octave></pitch><duration>1</duration><type>quarter</type></note>
      <note><pitch><step>E</step><octave>4</octave></pitch><duration>1</duration><type>quarter</type></note>
      <note><pitch><step>F</step><octave>4</octave></pitch><duration>1</duration><type>quarter</type></note>
      <note><pitch><step>G</step><octave>4</octave></pitch><duration>1</duration><type>quarter</type></note>
      <note><pitch><step>A</step><octave>4</octave></pitch><duration>1</duration><type>quarter</type></note>
      <note><pitch><step>B</step><octave>4</octave></pitch><duration>1</duration><type>quarter</type></note>
    </measure>
    <!-- Octave 5 -->
    <measure number="3">
      <note><pitch><step>C</step><octave>5</octave></pitch><duration>1</duration><type>quarter</type></note>
      <note><pitch><step>D</step><octave>5</octave></pitch><duration>1</duration><type>quarter</type></note>
      <note><pitch><step>E</step><octave>5</octave></pitch><duration>1</duration><type>quarter</type></note>
      <note><pitch><step>F</step><octave>5</octave></pitch><duration>1</duration><type>quarter</type></note>
      <note><pitch><step>G</step><octave>5</octave></pitch><duration>1</duration><type>quarter</type></note>
      <note><pitch><step>A</step><octave>5</octave></pitch><duration>1</duration><type>quarter</type></note>
      <note><pitch><step>B</step><octave>5</octave></pitch><duration>1</duration><type>quarter</type></note>
    </measure>
    <!-- Note types and rests -->
    <measure number="4">
      <attributes>
        <time>
          <beats>8</beats>
          <beat-type>4</beat-type>
        </time>
      </attributes>
      <note><rest/><duration>4</duration><type>whole</type></note>
      <note><pitch><step>C</step><octave>4</octave></pitch><duration>4</duration><type>whole</type></note>
    </measure>
    <measure number="5">
      <attributes>
        <time>
          <beats>4</beats>
          <beat-type>4</beat-type>
        </time>
      </attributes>
      <note><rest/><duration>2</duration><type>half</type></note>
      <note><pitch><step>D</step><octave>4</octave></pitch><duration>2</duration><type>half</type></note>
    </measure>
    <measure number="6">
      <attributes>
        <time>
          <beats>2</beats>
          <beat-type>4</beat-type>
        </time>
      </attributes>
      <note><rest/><duration>1</duration><type>quarter</type></note>
      <note><pitch><step>E</step><octave>4</octave></pitch><duration>1</duration><type>quarter</type></note>
    </measure>
    <measure number="7">
      <attributes>
        <time>
          <beats>2</beats>
          <beat-type>8</beat-type>
        </time>
      </attributes>
      <note><rest/><duration>1</duration><type>eighth</type></note>
      <note><pitch><step>F</step><octave>4</octave></pitch><duration>1</duration><type>eighth</type></note>
    </measure>
    <measure number="8">
      <attributes>
        <time>
          <beats>2</beats>
          <beat-type>16</beat-type>
        </time>
      </attributes>
      <note><rest/><duration>1</duration><type>16th</type></note>
      <note><pitch><step>G</step><octave>4</octave></pitch><duration>1</duration><type>16th</type></note>
    </measure>
    <measure number="9">
      <attributes>
        <time>
          <beats>3</beats>
          <beat-type>32</beat-type>
        </time>
      </attributes>
      <note><rest/><duration>1</duration><type>32nd</type></note>
      <note><pitch><step>A</step><octave>4</octave></pitch><duration>1</duration><type>32nd</type></note>
      <note><pitch><step>A</step><octave>5</octave></pitch><duration>1</duration><type>32nd</type></note>
    </measure>
    <measure number="10">
      <attributes>
        <time>
          <beats>2</beats>
          <beat-type>64</beat-type>
        </time>
      </attributes>
      <note><rest/><duration>1</duration><type>64th</type></note>
      <note><pitch><step>B</step><octave>4</octave></pitch><duration>1</duration><type>64th</type></note>
    </measure>
    <measure number="11">
      <attributes>
        <time>
          <beats>2</beats>
          <beat-type>8</beat-type>
        </time>
      </attributes>
      <note><pitch><step>C</step><octave>4</octave></pitch><duration>0.5</duration><type>eighth</type><beam>begin</beam></note>
      <note><pitch><step>C</step><octave>4</octave></pitch><duration>0.5</duration><type>eighth</type><beam>end</beam></note>
    </measure>
    <measure number="12">
      <attributes>
        <time>
          <beats>4</beats>
          <beat-type>8</beat-type>
        </time>
      </attributes>
      <note><pitch><step>C</step><octave>4</octave></pitch><duration>0.5</duration><type>eighth</type><beam>begin</beam></note>
      <note><pitch><step>C</step><octave>4</octave></pitch><duration>0.5</duration><type>eighth</type><beam>continue</beam></note>
      <note><pitch><step>C</step><octave>4</octave></pitch><duration>0.5</duration><type>eighth</type><beam>continue</beam></note>
      <note><pitch><step>C</step><octave>4</octave></pitch><duration>0.5</duration><type>eighth</type><beam>end</beam></note>
    </measure>
    <measure number="13">
      <note><pitch><step>C</step><octave>4</octave></pitch><duration>0.5</duration><type>eighth</type><beam>begin</beam></note>
      <note><pitch><step>D</step><octave>4</octave></pitch><duration>0.5</duration><type>eighth</type><beam>continue</beam></note>
      <note><pitch><step>E</step><octave>4</octave></pitch><duration>0.5</duration><type>eighth</type><beam>continue</beam></note>
      <note><pitch><step>F</step><octave>4</octave></pitch><duration>0.5</duration><type>eighth</type><beam>end</beam></note>
    </measure>
    <measure number="14">
      <attributes>
        <time>
          <beats>2</beats>
          <beat-type>8</beat-type>
        </time>
      </attributes>
      <note><pitch><step>C</step><octave>6</octave></pitch><duration>0.5</duration><type>eighth</type><beam>begin</beam></note>
      <note><pitch><step>C</step><octave>6</octave></pitch><duration>0.5</duration><type>eighth</type><beam>end</beam></note>
    </measure>
  </part>
</score-partwise>
